<svg width="24" height="24" viewBox="0 0 24 24" fill="none" xmlns="http://www.w3.org/2000/svg">
<g clip-path="url(#clip0_406_9)">
<path d="M12.62 20.81C12.2154 20.93 11.7847 20.93 11.38 20.81C8.48002 19.82 2.00002 15.69 2.00002 8.69001C1.99792 7.95785 2.14008 7.23245 2.41838 6.55525C2.69668 5.87804 3.10568 5.2623 3.622 4.7432C4.13832 4.22409 4.75185 3.81179 5.42755 3.52985C6.10324 3.2479 6.82787 3.10184 7.56002 3.10001C8.42382 3.09958 9.27563 3.30207 10.0468 3.69114C10.818 4.08022 11.4871 4.64501 12 5.34001C12.6977 4.40066 13.6745 3.70598 14.7908 3.35531C15.9071 3.00465 17.1057 3.01597 18.2152 3.38764C19.3247 3.75932 20.2882 4.47232 20.968 5.42467C21.6478 6.37703 22.009 7.51996 22 8.69001C22 15.69 15.52 19.82 12.62 20.81Z" stroke="#292D32" stroke-width="1.5" stroke-linecap="round" stroke-linejoin="round"/>
</g>
<defs>
<clipPath id="clip0_406_9">
<rect width="24" height="24" fill="white"/>
</clipPath>
</defs>
</svg>
