<svg width="24" height="24" viewBox="0 0 24 24" fill="none" xmlns="http://www.w3.org/2000/svg">
<g clip-path="url(#clip0_406_2)">
<path d="M8.40002 6.5H15.6C19 6.5 19.34 8.09 19.57 10.03L20.47 17.53C20.76 19.99 20 22 16.5 22H7.51002C4.00002 22 3.24002 19.99 3.54002 17.53L4.44002 10.03C4.66002 8.09 5.00002 6.5 8.40002 6.5Z" stroke="#292D32" stroke-width="1.5" stroke-linecap="round" stroke-linejoin="round"/>
<path d="M8.00038 8V4.5C7.98025 4.16645 8.03113 3.83242 8.14964 3.51998C8.26816 3.20755 8.45162 2.92381 8.68791 2.68753C8.92419 2.45124 9.20793 2.26778 9.52037 2.14926C9.8328 2.03075 10.1668 1.97987 10.5004 2H13.5004C13.8339 1.97987 14.168 2.03075 14.4804 2.14926C14.7928 2.26778 15.0766 2.45124 15.3129 2.68753C15.5491 2.92381 15.7326 3.20755 15.8511 3.51998C15.9696 3.83242 16.0205 4.16645 16.0004 4.5V8" stroke="#292D32" stroke-width="1.5" stroke-linecap="round" stroke-linejoin="round"/>
<path d="M20.41 17.03H8" stroke="#292D32" stroke-width="1.5" stroke-linecap="round" stroke-linejoin="round"/>
</g>
<defs>
<clipPath id="clip0_406_2">
<rect width="24" height="24" fill="white"/>
</clipPath>
</defs>
</svg>
